# xmcd
#
# Track frame offsets: 
#        150
#        15790
#        27570
#        42205
#        59325
#        72612
#        88130
#        104682
#        120122
#        132962
#        148020
#        162017
#        177530
#        193670
#        210567
#        226797
#        241905
#        256982
#        267812
#        283030
#
# Disc length: 4014 seconds
#
# Revision: 3
# Processed by: cddbd v1.5.2PL0 Copyright (c) Steve Scherf et al.
# Submitted via: ExactAudioCopy v0.99pb5
#
DISCID=1b0fac14
DTITLE=Various Artist - Music For Your Life Collection
DYEAR=2002
DGENRE=New Age
TTITLE0=Karunesh - Inshallah
TTITLE1=Corciolli - Book Of Memories
TTITLE2=Ganesha Symphonic Chants Experience - Pranamyaa Shirasa Devam
TTITLE3=Panta Rhei - Ailein Duinn
TTITLE4=Mary Anderson - Mary's Dance
TTITLE5=Medwyn Goodall - Whisper On The Moors
TTITLE6=Sarva-Antah - Earth My Body
TTITLE7=Mike Rowland and Christa Michell - Look Into The Light
TTITLE8=Patrick Kosmos - Healing Vision Part 1-6
TTITLE9=Karunesh - Into The Light
TTITLE10=Kamal - Papillon (Yelleleh Mix)
TTITLE11=Guna Sangah - Svadishthana Chakra (I Feel)
TTITLE12=Schawkie Roth and Joel Andrews - Mother Of Pearl
TTITLE13=Aeoliah - Angels Of Consecration
TTITLE14=Aeoliah and Mike Rowland - Silent Majesty
TTITLE15=Ven. Bhagdro and Chris Michell - Chant 6
TTITLE16=Authentic Mantra - Naam Ramayan
TTITLE17=Hariprasad Chaurasia - Raga Marwa
TTITLE18=Danny Becher - Prasantama (With A Quiet Mind)
TTITLE19=Shamballah - Heaven Prayer Opera
EXTD=YEAR: 2003
EXTT0=
EXTT1=
EXTT2=
EXTT3=
EXTT4=
EXTT5=
EXTT6=
EXTT7=
EXTT8=
EXTT9=
EXTT10=
EXTT11=
EXTT12=
EXTT13=
EXTT14=
EXTT15=
EXTT16=
EXTT17=
EXTT18=
EXTT19=
PLAYORDER=
